<svg width="21" height="18" viewBox="0 0 21 18" fill="none" xmlns="http://www.w3.org/2000/svg">
<path fill-rule="evenodd" clip-rule="evenodd" d="M10.9999 3.08072V6.95458L10.0987 7.044C6.52654 7.3986 3.56831 9.8439 2.46431 13.1386C4.59868 11.5505 7.3003 10.7313 10.0972 11.0048L10.9999 11.0931V14.9195L18.3991 9.0001L10.9999 3.08072ZM8.99994 2.04041C8.99994 0.782648 10.4548 0.0833986 11.4369 0.869109L20.1366 7.8288C20.8872 8.4293 20.8872 9.5709 20.1366 10.1714L11.4369 17.1311C10.4548 17.9168 8.99994 17.2175 8.99994 15.9598V12.953C6.22917 12.9636 3.6436 14.2668 1.96756 16.3818C1.34766 17.164 -0.0283663 16.7868 0.00486373 15.668C0.160624 10.4241 3.98465 6.10256 8.99994 5.18107V2.04041Z" fill="#8D80D1"/>
</svg>
