<svg width="20" height="18" viewBox="0 0 20 18" fill="none" xmlns="http://www.w3.org/2000/svg">
<path fill-rule="evenodd" clip-rule="evenodd" d="M0 6.26362C0 2.6511 2.62572 0 6.04834 0C7.66748 0 9.0203 0.65882 10.0021 1.70159C10.985 0.65736 12.3279 0 13.9517 0C17.3743 0 20 2.6511 20 6.26362C20 8.4216 19.0589 10.4793 17.5184 12.3629C15.9784 14.246 13.7957 16.0117 11.1854 17.6166L11.1707 17.6256L11.1556 17.6342C11.0244 17.7087 10.8602 17.7916 10.6849 17.8588C10.5282 17.9187 10.2773 18 10 18C9.7225 18 9.4715 17.9188 9.3132 17.8576C9.1367 17.7894 8.9706 17.7042 8.836 17.624L8.8243 17.6171L8.8244 17.617C6.20942 16.0121 4.02425 14.2464 2.48294 12.3632C0.94118 10.4794 0 8.4217 0 6.26362ZM6.04834 2C3.77912 2 2 3.7062 2 6.26362C2 7.8179 2.67664 9.4421 4.03065 11.0965C5.38392 12.7499 7.37015 14.3772 9.8639 15.9084C9.9074 15.934 9.9561 15.9589 10.001 15.9784C10.0483 15.9584 10.1019 15.932 10.1541 15.9028C12.6389 14.3734 14.6197 12.7482 15.9702 11.0968C17.3233 9.4423 18 7.818 18 6.26362C18 3.7062 16.2209 2 13.9517 2C12.6382 2 11.6158 2.65594 10.9415 3.75192C10.5086 4.45564 9.4845 4.45089 9.0566 3.74673C8.3996 2.66565 7.36385 2 6.04834 2Z" fill="#8D80D1"/>
</svg>
