<svg width="22" height="22" viewBox="0 0 22 22" fill="none" xmlns="http://www.w3.org/2000/svg">
<path fill-rule="evenodd" clip-rule="evenodd" d="M13.5212 0.60807C14.3319 -0.20269 15.6464 -0.202691 16.4572 0.60807L21.3919 5.5428C22.2027 6.35356 22.2027 7.66807 21.3919 8.47883L8.25821 21.6126C8.01014 21.8606 7.67367 22 7.32283 22H1.32283C0.59225 22 0 21.4077 0 20.6772V14.6772C0 14.3263 0.13937 13.9899 0.38745 13.7418L13.5212 0.60807ZM15.043 2.02229C15.0133 1.99257 14.9651 1.99257 14.9354 2.02229L13.1751 3.78254L18.2175 8.82487L19.9777 7.06462C20.0074 7.03491 20.0074 6.98673 19.9777 6.95701L15.043 2.02229ZM16.8032 10.2391L11.7609 5.19675L2 14.9577V20H7.04233L16.8032 10.2391ZM12.468 9.532C12.8585 9.9225 12.8585 10.5557 12.468 10.9462L7.08756 16.3267C6.69704 16.7172 6.06387 16.7172 5.67335 16.3267C5.28283 15.9361 5.28283 15.303 5.67335 14.9124L11.0538 9.532C11.4443 9.1415 12.0775 9.1415 12.468 9.532Z" fill="#8D80D1"/>
</svg>
