<svg width="24" height="12" viewBox="0 0 24 12" fill="none" xmlns="http://www.w3.org/2000/svg">
<path fill-rule="evenodd" clip-rule="evenodd" d="M7.29289 0.29289C7.68342 -0.09763 8.31658 -0.09763 8.70711 0.29289L13.7071 5.2929C14.0976 5.6834 14.0976 6.3166 13.7071 6.7071L8.70711 11.7071C8.31658 12.0976 7.68342 12.0976 7.29289 11.7071C6.90237 11.3166 6.90237 10.6834 7.29289 10.2929L10.5858 7H1C0.447715 7 0 6.5523 0 6C0 5.4477 0.447715 5 1 5H10.5858L7.29289 1.70711C6.90237 1.31658 6.90237 0.68342 7.29289 0.29289ZM20 4C18.8954 4 18 4.8954 18 6C18 7.1046 18.8954 8 20 8C21.1046 8 22 7.1046 22 6C22 4.8954 21.1046 4 20 4ZM16 6C16 3.79086 17.7909 2 20 2C22.2091 2 24 3.79086 24 6C24 8.2091 22.2091 10 20 10C17.7909 10 16 8.2091 16 6Z" fill="#8D80D1"/>
</svg>
