<svg width="18" height="14" viewBox="0 0 18 14" fill="none" xmlns="http://www.w3.org/2000/svg">
<g opacity="0.2">
<path fill-rule="evenodd" clip-rule="evenodd" d="M16.6654 2.76C16.4895 2.05745 15.9513 1.50261 15.2545 1.30545C14.0036 1 8.99993 1 8.99993 1C8.99993 1 3.99629 1 2.74538 1.33455C2.04851 1.5317 1.51032 2.08654 1.33447 2.78909C1.10554 4.05859 0.993554 5.34641 0.999927 6.63636C0.991767 7.93603 1.10376 9.23367 1.33447 10.5127C1.52818 11.1929 2.06322 11.7224 2.74538 11.9091C3.99629 12.2436 8.99993 12.2436 8.99993 12.2436C8.99993 12.2436 14.0036 12.2436 15.2545 11.9091C15.9513 11.7119 16.4895 11.1571 16.6654 10.4545C16.8926 9.19461 17.0045 7.91661 16.9999 6.63636C17.0081 5.33669 16.8961 4.03905 16.6654 2.76Z" stroke="black" stroke-width="2" stroke-linecap="round" stroke-linejoin="round"/>
<path fill-rule="evenodd" clip-rule="evenodd" d="M7.36353 9.01466L11.5453 6.63648L7.36353 4.2583V9.01466V9.01466Z" stroke="black" stroke-width="2" stroke-linecap="round" stroke-linejoin="round"/>
</g>
</svg>
